name C:\Users\u0101727\Documents\MyRepositories\upper-imu-dc\Results\main_tracking\Case_46\kinematics.mot
datacolumns 10
datarows 18
range 5.38000000 5.55000000
endheader 
time	clav_prot	clav_elev	scapula_abduction	scapula_elevation	scapula_upward_rot	scapula_winging	plane_elv	shoulder_elv	axial_rot	
          5.38000000	        -30.24273097	          6.64916885	         -1.44094902	         -3.11669977	         50.71168579	         -6.28022254	         65.39897017	         55.61700869	        -10.14623302	
          5.39000000	        -30.15946581	          6.56463700	         -1.53605332	         -3.14655066	         50.39153542	         -6.20709250	         65.47874279	         55.26598555	        -10.14052577	
          5.40000000	        -30.07220702	          6.47428580	         -1.62752190	         -3.17911970	         50.06486334	         -6.13028120	         65.55403560	         54.91551511	        -10.12943508	
          5.41000000	        -29.98112134	          6.37818066	         -1.71576402	         -3.21433437	         49.73152415	         -6.04979969	         65.62496700	         54.56591503	        -10.11398296	
          5.42000000	        -29.88648624	          6.27650152	         -1.80137458	         -3.25205270	         49.39142345	         -5.96571397	         65.69178929	         54.21759318	        -10.09541775	
          5.43000000	        -29.78868142	          6.16953756	         -1.88511167	         -3.29206696	         49.04452481	         -5.87814201	         65.75486338	         53.87102059	        -10.07520581	
          5.44000000	        -29.68817449	          6.05767218	         -1.96786157	         -3.33411388	         48.69085612	         -5.78724727	         65.81462055	         53.52669859	        -10.05501530	
          5.45000000	        -29.58550089	          5.94135703	         -2.05059215	         -3.37789196	         48.33051378	         -5.69322847	         65.87151404	         53.18512464	        -10.03668890	
          5.46000000	        -29.48123954	          5.82107749	         -2.13429879	         -3.42308445	         47.96366369	         -5.59630611	         65.92596691	         52.84676129	        -10.02220421	
          5.47000000	        -29.37598675	          5.69731502	         -2.21994961	         -3.46938419	         47.59053852	         -5.49670784	         65.97832503	         52.51201230	        -10.01362335	
          5.48000000	        -29.27033180	          5.57051286	         -2.30843770	         -3.51651603	         47.21143119	         -5.39465469	         66.02882407	         52.18120875	        -10.01303473	
          5.49000000	        -29.16483679	          5.44105075	         -2.40054691	         -3.56425304	         46.82668487	         -5.29035015	         66.07757713	         51.85460601	        -10.02249056	
          5.50000000	        -29.06002297	          5.30923110	         -2.49693464	         -3.61242484	         46.43668022	         -5.18397316	         66.12458444	         51.53239078	        -10.04394302	
          5.51000000	        -28.95636397	          5.17527645	         -2.59813120	         -3.66091829	         46.04182137	         -5.07567513	         66.16976179	         51.21469526	        -10.07918097	
          5.52000000	        -28.85428531	          5.03933597	         -2.70455242	         -3.70967222	         45.64252269	         -4.96558038	         66.21298063	         50.90161423	        -10.12976893	
          5.53000000	        -28.75416851	          4.90149741	         -2.81651959	         -3.75866866	         45.23919808	         -4.85378917	         66.25411115	         50.59322081	        -10.19698882	
          5.54000000	        -28.65635758	          4.76180183	         -2.93428116	         -3.80792251	         44.83225419	         -4.74038219	         66.29306105	         50.28957736	        -10.28178345	
          5.55000000	        -28.56116596	          4.62025924	         -3.05803181	         -3.85747096	         44.42208810	         -4.62542592	         66.32980554	         49.99073925	        -10.38469998	
